# AST/ASF file generated using VICON BodyLanguage
# -----------------------------------------------
:version 1.10
:name VICON
:units
  mass 1.0
  length 0.45
  angle deg
:documentation
   .ast/.asf automatically generated from VICON data using
   VICON BodyBuilder and BodyLanguage model FoxedUp or BRILLIANT.MOD
:root
   order TX TY TZ RX RY RZ
   axis XYZ
   position 0 0 0  
   orientation 0 0 0 
:bonedata
  begin
     id 1 
     name lhipjoint
     direction 0.702568 -0.596508 0.388042 
     length 2.56661 
     axis 0 0 0  XYZ
  end
  begin
     id 2 
     name lfemur
     direction 0.34202 -0.939693 0  
     length 6.58374  
     axis 0 0 20  XYZ
    dof rx ry rz
    limits (-160.0 20.0)
           (-70.0 70.0)
           (-60.0 70.0)
  end
  begin
     id 3 
     name ltibia
     direction 0.34202 -0.939693 0   
     length 6.62538   
     axis 0 0 20   XYZ
    dof rx
    limits (-10.0 170.0)
  end
  begin
     id 4 
     name lfoot
     direction 0.10455 -0.287249 0.952133   
     length 2.26699   
     axis -90 7.62852e-016 20   XYZ
    dof rx rz
    limits (-45.0 90.0)
           (-70.0 20.0)
  end
  begin
     id 5 
     name ltoes
     direction 1.53572e-011 -4.22322e-011 1   
     length 1.12949   
     axis -90 7.62852e-016 20   XYZ
    dof rx
    limits (-90.0 20.0)
  end
  begin
     id 6 
     name rhipjoint
     direction -0.728055 -0.574632 0.373811   
     length 2.66432  
     axis 0 0 0  XYZ 
  end
  begin
     id 7 
     name rfemur
     direction -0.34202 -0.939693 0   
     length 6.66732   
     axis 0 0 -20   XYZ
    dof rx ry rz
    limits (-160.0 20.0)
           (-70.0 70.0)
           (-70.0 60.0)
  end
  begin
     id 8 
     name rtibia
     direction -0.34202 -0.939693 0   
     length 6.59288   
     axis 0 0 -20   XYZ
    dof rx
    limits (-10.0 170.0)
 end
 begin
     id 9 
     name rfoot
     direction -0.119193 -0.327479 0.93731   
     length 2.38061  
     axis -90 -7.62852e-016 -20   XYZ
    dof rx rz
    limits (-45.0 90.0)
           (-20.0 70.0)
  end
  begin
     id 10 
     name rtoes
     direction -1.53547e-011 -4.21827e-011 1   
     length 1.17899   
     axis -90 -7.62852e-016 -20   XYZ
    dof rx
    limits (-90.0 20.0)
  end
  begin
     id 11 
     name lowerback
     direction -0.000416114 0.999912 -0.0132284   
     length 2.12109   
     axis 0 0 0   XYZ
    dof rx ry rz
    limits (-20.0 45.0)
           (-30.0 30.0)
           (-30.0 30.0)
  end
  begin
     id 12 
     name upperback
     direction -0.00136371 0.99809 0.0617608   
     length 2.10067   
     axis 0 0 0   XYZ
    dof rx ry rz
    limits (-20.0 45.0)
           (-30.0 30.0)
           (-30.0 30.0)
  end
  begin
     id 13 
     name thorax
     direction -3.43026e-005 0.997776 0.0666515   
     length 2.10618   
     axis 0 0 0   XYZ
    dof rx ry rz
    limits (-20.0 45.0)
           (-30.0 30.0)
           (-30.0 30.0)
  end
  begin
     id 14 
     name lowerneck
     direction 0.0398646 0.998418 0.0396592   
     length 1.83817   
     axis 0 0 0   XYZ
    dof rx ry rz
    limits (-20.0 45.0)
           (-30.0 30.0)
           (-30.0 30.0)
  end
  begin
     id 15 
     name upperneck
     direction -0.0367268 0.961527 -0.272244   
     length 1.81975   
     axis 0 0 0   XYZ
    dof rx ry rz
    limits (-20.0 45.0)
           (-30.0 30.0)
           (-30.0 30.0)
  end
  begin
     id 16
     name head
     direction -0.0182665 0.99536 -0.0944669  
     length 1.86026  
     axis 0 0 0   XYZ
    dof rx ry rz
    limits (-20.0 45.0)
           (-30.0 30.0)
           (-30.0 30.0)
  end
  begin
     id 17 
     name lclavicle
     direction 0.924239 0.361045 0.124212  
     length 3.26878  
     axis 0 0 0   XYZ
    dof ry rz
    limits (-20.0 10.0)
           (0.0 20.0)
  end
  begin
     id 18 
     name lhumerus
     direction 1 -4.48968e-011 -2.56583e-027   
     length 4.58538   
     axis 180 -30 -90   XYZ
    dof rx ry rz
    limits (-60.0 90.0)
           (-90.0 90.0)
           (-90.0 90.0)
  end
  begin
     id 19
     name lradius
     direction 1 -4.4898e-011 -5.50375e-027   
     length 2.68935   
     axis 180 -30 -90   XYZ
    dof rx
    limits (-10.0 170.0)
  end
  begin
     id 20
     name lwrist
     direction 1 -4.48939e-011 -1.48955e-026   
     length 1.34468   
     axis 9.0955e-015 90 90   XYZ
    dof ry
    limits (-180.0 0.0)
 end
  begin
     id 21 
     name lhand
     direction 1 -4.48936e-011 -2.97907e-026   
     length 0.585058   
     axis 1.90115e-014 90 90   XYZ
    dof rx rz
    limits (-90.0 90.0)
           (-45.0 45.0)
  end
  begin
     id 22 
     name lfingers
     direction 1 -4.49082e-011 -5.96235e-026   
     length 0.471689   
     axis 3.80223e-014 90 90   XYZ
    dof rx
    limits (0.0 90.0)
  end
  begin
     id 23
     name lthumb
     direction 0.707107 -6.3489e-011 0.707107   
     length 0.677253   
     axis -90 45 -3.84942e-014   XYZ
    dof rx rz
    limits (-45.0 45.0)
           (-45.0 45.0)
  end
  begin
     id 24 
     name rclavicle
     direction -0.923098 0.371783 0.0983239   
     length 3.19656  
     axis 0 0 0   XYZ 
    dof ry rz
    limits (-10.0 20.0)
           (-20.0 0.0)
  end
  begin
     id 25 
     name rhumerus
     direction -1 -4.48976e-011 -2.5492e-027  
     length 4.4745   
     axis 180 30 90   XYZ
    dof rx ry rz
    limits (-90.0 60.0)
           (-90.0 90.0)
           (-90.0 90.0)
  end
  begin
     id 26 
     name rradius
     direction -1 -4.48941e-011 -4.36555e-027   
     length 2.93896   
     axis 180 30 90   XYZ
    dof rx
    limits (-10.0 170.0)
  end
  begin
     id 27 
     name rwrist
     direction -1 -4.49044e-011 -1.49032e-026   
     length 1.46948   
     axis 9.0955e-015 -90 -90   XYZ
    dof ry
    limits (-180.0 0.0)
  end
  begin
     id 28
     name rhand
     direction -1 -4.48826e-011 -2.97749e-026   
     length 0.405092   
     axis 1.90115e-014 -90 -90   XYZ
    dof rx rz
    limits (-90.0 90.0)
           (-45.0 45.0)
  end
  begin
     id 29
     name rfingers
     direction -1 -4.49209e-011 -5.96602e-026   
     length 0.326596   
     axis 3.80223e-014 -90 -90   XYZ
    dof rx
    limits (0.0 90.0)
  end
  begin
     id 30
     name rthumb
     direction -0.707107 -6.34776e-011 0.707107   
     length 0.468928   
     axis -90 -45 3.84942e-014   XYZ
    dof rx rz
    limits (-45.0 45.0)
           (-45.0 45.0)
  end
:hierarchy
  begin
    root lhipjoint rhipjoint lowerback
    lhipjoint lfemur
    lfemur ltibia
    ltibia lfoot
    lfoot ltoes
    rhipjoint rfemur
    rfemur rtibia
    rtibia rfoot
    rfoot rtoes
    lowerback upperback
    upperback thorax
    thorax lowerneck lclavicle rclavicle
    lowerneck upperneck
    upperneck head
    lclavicle lhumerus
    lhumerus lradius
    lradius lwrist
    lwrist lhand lthumb
    lhand lfingers
    rclavicle rhumerus
    rhumerus rradius
    rradius rwrist
    rwrist rhand rthumb
    rhand rfingers
  end

#!OML:ASF H:\Punching\Project 1\Capture day 1\Session 1\female.ASF
:FULLY-SPECIFIED
:DEGREES
469
root 0.380752 15.3533 11.6988 15.3239 -15.6523 -2.39041
lowerback -0.525706 -1.99222 2.28691
upperback -5.95629 -2.55499 1.69338
thorax -5.9008 -1.35134 0.60045
lowerneck -1.97453 10.9147 17.4874
upperneck 31.4463 17.2088 -12.5099
head 13.7025 8.45275 -5.57688
rclavicle -4.29996e-014 -1.47101e-014
rhumerus -44.4651 29.3897 -78.6326
rradius 111.47
rwrist 5.2659
rhand -16.3991 7.14345
rfingers 7.12502
rthumb 9.81513 -22.6078
lclavicle -4.29996e-014 -1.47101e-014
lhumerus 43.6152 2.67238 41.6155
lradius 81.8255
lwrist -1.4628
lhand -5.23378 9.15705
lfingers 7.12502
lthumb 20.5688 38.0873
rfemur -0.2974 6.75809 7.88064
rtibia 15.1972
rfoot -15.5671 -10.5294
rtoes -15.8627
lfemur -41.3296 -1.68236 -10.1197
ltibia 42.1312
lfoot -8.6431 15.0218
ltoes -4.28263
470
root 0.329997 15.3597 11.6315 15.1753 -15.6402 -2.33354
lowerback -0.543496 -1.95023 2.2346
upperback -5.95872 -2.50211 1.65801
thorax -5.89168 -1.32328 0.589625
lowerneck -1.93659 10.8719 17.3881
upperneck 31.3978 17.1554 -12.4926
head 13.647 8.42255 -5.56443
rclavicle -4.47638e-014 5.06901e-015
rhumerus -43.0017 29.7226 -78.4433
rradius 111.316
rwrist 4.46803
rhand -14.5802 5.96429
rfingers 7.12502
rthumb 11.5697 -23.6964
lclavicle -4.47638e-014 5.06901e-015
lhumerus 43.5614 1.4197 42.5944
lradius 81.9167
lwrist -0.523046
lhand -3.50337 10.3062
lfingers 7.12502
lthumb 22.2308 39.0477
rfemur -0.561377 6.77403 8.05251
rtibia 15.6073
rfoot -15.7938 -10.3977
rtoes -16.7302
lfemur -41.0348 -1.92511 -9.78721
ltibia 41.4685
lfoot -8.2065 15.2309
ltoes -4.1494
471
root 0.276369 15.366 11.5607 15.0326 -15.6197 -2.26009
lowerback -0.562661 -1.90096 2.17072
upperback -5.97122 -2.44025 1.61012
thorax -5.8924 -1.29063 0.572132
lowerneck -1.89682 10.8224 17.2941
upperneck 31.3474 17.0907 -12.472
head 13.5883 8.38853 -5.55347
rclavicle -3.35511e-014 4.67144e-015
rhumerus -41.5273 30.0121 -78.2799
rradius 111.123
rwrist 3.66671
rhand -12.7065 4.74773
rfingers 7.12502
rthumb 13.3761 -24.8029
lclavicle -3.35511e-014 4.67144e-015
lhumerus 43.4406 0.134394 43.6066
lradius 81.9959
lwrist 0.274764
lhand -1.7091 11.5019
lfingers 7.12502
lthumb 23.9524 40.0278
rfemur -0.832628 6.7819 8.23788
rtibia 16.0192
rfoot -16.0609 -10.3497
rtoes -17.516
lfemur -40.7359 -2.18706 -9.44728
ltibia 40.7524
lfoot -7.74758 15.448
ltoes -3.98925
472
root 0.219832 15.3719 11.4866 14.8897 -15.5849 -2.16917
lowerback -0.571088 -1.85871 2.08305
upperback -5.98113 -2.38848 1.55405
thorax -5.89593 -1.26198 0.560244
lowerneck -1.8759 10.7751 17.2292
upperneck 31.2938 17.0276 -12.4671
head 13.5382 8.35612 -5.55207
rclavicle 6.22444e-015 -1.86858e-014
rhumerus -40.0113 30.2938 -78.1493
rradius 110.878
rwrist 2.8471
rhand -10.8427 3.50376
rfingers 7.12502
rthumb 15.172 -25.92
lclavicle 6.22444e-015 -1.86858e-014
lhumerus 43.2282 -1.17967 44.6063
lradius 81.9105
lwrist 0.68544
lhand -0.268208 12.3363
lfingers 7.12502
lthumb 25.3335 40.6737
rfemur -1.10395 6.77611 8.43689
rtibia 16.4376
rfoot -16.3704 -10.4003
rtoes -18.2004
lfemur -40.4251 -2.46659 -9.10448
ltibia 39.977
lfoot -7.26248 15.671
ltoes -3.82205
473
root 0.160375 15.3776 11.409 14.7507 -15.5365 -2.05412
lowerback -0.577429 -1.81458 1.97431
upperback -5.99234 -2.33523 1.48602
thorax -5.90163 -1.23185 0.547747
lowerneck -1.88412 10.7303 17.1572
upperneck 31.2458 16.9614 -12.4482
head 13.4938 8.32152 -5.54275
rclavicle 1.2306e-014 1.68967e-015
rhumerus -38.4735 30.5464 -78.0446
rradius 110.576
rwrist 2.01288
rhand -9.0189 2.23363
rfingers 7.12502
rthumb 16.9282 -27.0486
lclavicle 1.2306e-014 1.68967e-015
lhumerus 42.9316 -2.54423 45.5961
lradius 81.6551
lwrist 0.762507
lhand 0.77556 12.7661
lfingers 7.12502
lthumb 26.333 40.958
rfemur -1.38254 6.75586 8.64139
rtibia 16.8604
rfoot -16.7123 -10.5557
rtoes -18.7811
lfemur -40.1053 -2.76681 -8.76472
ltibia 39.1347
lfoot -6.75139 15.9061
ltoes -3.62166
474
root 0.0980211 15.3832 11.328 14.616 -15.47 -1.92267
lowerback -0.580988 -1.767 1.85863
upperback -6.00722 -2.27816 1.40236
thorax -5.91322 -1.19993 0.522967
lowerneck -1.90849 10.6841 17.0913
upperneck 31.1986 16.8874 -12.4192
head 13.4513 8.2844 -5.5306
rclavicle -3.1349e-014 -1.09332e-014
rhumerus -36.9379 30.764 -77.9851
rradius 110.209
rwrist 1.17778
rhand -7.29686 0.952809
rfingers 7.12502
rthumb 18.5853 -28.1794
lclavicle -3.1349e-014 -1.09332e-014
lhumerus 42.549 -3.97584 46.5598
lradius 81.2108
lwrist 0.52718
lhand 1.31483 12.6681
lfingers 7.12502
lthumb 26.8491 40.7818
rfemur -1.66405 6.71901 8.85981
rtibia 17.2788
rfoot -17.0799 -10.8057
rtoes -19.2538
lfemur -39.7749 -3.08895 -8.41983
ltibia 38.2242
lfoot -6.21797 16.1542
ltoes -3.3684
